{
    "asset" : {
        "generator" : "Khronos glTF Blender I/O v3.4.50",
        "version" : "2.0"
    },
    "scene" : 0,
    "scenes" : [
        {
            "name" : "Scene",
            "nodes" : [
                0,
                1
            ]
        }
    ],
    "nodes" : [
        {
            "mesh" : 0,
            "name" : "Plane.001_Plane.002",
            "rotation" : [
                0.70710688829422,
                0,
                0,
                0.7071066498756409
            ]
        },
        {
            "mesh" : 1,
            "name" : "Plane_Plane.001",
            "rotation" : [
                0.70710688829422,
                0,
                0,
                0.7071066498756409
            ]
        }
    ],
    "materials" : [
        {
            "doubleSided" : true,
            "name" : "stone",
            "pbrMetallicRoughness" : {
                "baseColorFactor" : [
                    0.800000011920929,
                    0.800000011920929,
                    0.800000011920929,
                    1
                ],
                "metallicFactor" : 0.1318179965019226,
                "roughnessFactor" : 0.525658369064331
            }
        }
    ],
    "meshes" : [
        {
            "name" : "Plane.001_Plane.002",
            "primitives" : [
                {
                    "attributes" : {
                        "POSITION" : 0,
                        "TEXCOORD_0" : 1,
                        "NORMAL" : 2
                    },
                    "indices" : 3,
                    "material" : 0
                }
            ]
        },
        {
            "name" : "Plane_Plane.001",
            "primitives" : [
                {
                    "attributes" : {
                        "POSITION" : 4,
                        "TEXCOORD_0" : 5,
                        "NORMAL" : 6
                    },
                    "indices" : 7,
                    "material" : 0
                }
            ]
        }
    ],
    "accessors" : [
        {
            "bufferView" : 0,
            "componentType" : 5126,
            "count" : 304,
            "max" : [
                0.9715099930763245,
                0.35950401425361633,
                2.0335869789123535
            ],
            "min" : [
                -0.9715099930763245,
                -0.35950401425361633,
                0.584263026714325
            ],
            "type" : "VEC3"
        },
        {
            "bufferView" : 1,
            "componentType" : 5126,
            "count" : 304,
            "type" : "VEC2"
        },
        {
            "bufferView" : 2,
            "componentType" : 5126,
            "count" : 304,
            "type" : "VEC3"
        },
        {
            "bufferView" : 3,
            "componentType" : 5123,
            "count" : 468,
            "type" : "SCALAR"
        },
        {
            "bufferView" : 4,
            "componentType" : 5126,
            "count" : 384,
            "max" : [
                0.9715099930763245,
                0.35950401425361633,
                1.10909903049469
            ],
            "min" : [
                -0.9715099930763245,
                -0.35950401425361633,
                -2.4791059494018555
            ],
            "type" : "VEC3"
        },
        {
            "bufferView" : 5,
            "componentType" : 5126,
            "count" : 384,
            "type" : "VEC2"
        },
        {
            "bufferView" : 6,
            "componentType" : 5126,
            "count" : 384,
            "type" : "VEC3"
        },
        {
            "bufferView" : 7,
            "componentType" : 5123,
            "count" : 564,
            "type" : "SCALAR"
        }
    ],
    "bufferViews" : [
        {
            "buffer" : 0,
            "byteLength" : 3648,
            "byteOffset" : 0,
            "target" : 34962
        },
        {
            "buffer" : 0,
            "byteLength" : 2432,
            "byteOffset" : 3648,
            "target" : 34962
        },
        {
            "buffer" : 0,
            "byteLength" : 3648,
            "byteOffset" : 6080,
            "target" : 34962
        },
        {
            "buffer" : 0,
            "byteLength" : 936,
            "byteOffset" : 9728,
            "target" : 34963
        },
        {
            "buffer" : 0,
            "byteLength" : 4608,
            "byteOffset" : 10664,
            "target" : 34962
        },
        {
            "buffer" : 0,
            "byteLength" : 3072,
            "byteOffset" : 15272,
            "target" : 34962
        },
        {
            "buffer" : 0,
            "byteLength" : 4608,
            "byteOffset" : 18344,
            "target" : 34962
        },
        {
            "buffer" : 0,
            "byteLength" : 1128,
            "byteOffset" : 22952,
            "target" : 34963
        }
    ],
    "buffers" : [
        {
            "byteLength" : 24080,
            "uri" : "data:application/octet-stream;base64,"
        }
    ]
}
